<?xml version="1.0" standalone="no"?>
<!DOCTYPE svg PUBLIC "-//W3C//DTD SVG 20010904//EN"
 "http://www.w3.org/TR/2001/REC-SVG-20010904/DTD/svg10.dtd">
<svg version="1.0" xmlns="http://www.w3.org/2000/svg"
 width="335.000000pt" height="429.000000pt" viewBox="0 0 335.000000 429.000000"
 preserveAspectRatio="xMidYMid meet">
<metadata>
Created by potrace 1.15, written by Peter Selinger 2001-2017
</metadata>
<g transform="translate(0.000000,429.000000) scale(0.100000,-0.100000)"
fill="#000000" stroke="none">
<path d="M1200 3929 c-422 -29 -651 -125 -747 -312 -59 -117 -84 -327 -73
-605 l5 -123 75 92 c205 249 438 408 715 486 121 34 365 43 501 19 471 -82
770 -372 813 -789 30 -295 -68 -549 -280 -727 -151 -126 -331 -210 -735 -345
-393 -131 -534 -208 -585 -320 -21 -45 -24 -121 -8 -178 33 -119 226 -255 444
-312 86 -23 246 -30 359 -16 359 46 577 217 697 549 12 35 29 66 37 70 46 17
86 -132 86 -313 -2 -261 -97 -490 -284 -676 l-79 -79 32 0 c67 0 292 31 370
51 222 56 342 164 395 356 42 149 43 205 40 1468 -3 1119 -5 1215 -21 1270
-86 293 -290 397 -852 435 -176 11 -726 11 -905 -1z"/>
<path d="M1374 2910 c-281 -41 -520 -318 -565 -655 -17 -135 11 -195 91 -195
48 0 227 42 389 91 276 83 493 191 566 282 27 35 30 46 30 110 -1 179 -152
334 -355 366 -72 12 -82 12 -156 1z"/>
</g>
</svg>
